<svg width="752" height="650" viewBox="0 0 752 650" fill="none" xmlns="http://www.w3.org/2000/svg">
<g clip-path="url(#clip0_19_12)">
<path d="M376 0C583.659 0 752 165.207 752 369C752 473.344 707.868 567.571 636.924 634.688C608.869 661.229 565.31 647.938 538.302 620.332C496.574 577.682 438.331 551.27 373.95 551.424C310.549 551.575 253.223 577.461 211.836 619.172C184.633 646.587 140.981 659.567 113.118 632.823C43.3202 565.831 0 472.381 0 369C0 165.207 168.341 0 376 0ZM473.249 261.877C469.972 261.877 466.773 262.879 464.085 264.748L345.821 338.967C335.797 346.278 329.069 357.238 327.096 369.468C325.122 381.697 328.063 394.21 335.281 404.29C342.499 414.37 353.411 421.203 365.648 423.308C377.886 425.412 390.461 422.616 400.646 415.529C404.864 412.493 408.566 408.8 411.61 404.592L486.015 286.623C488.434 283.242 489.412 279.043 488.737 274.944C488.062 270.846 485.788 267.179 482.412 264.748C479.724 262.879 476.526 261.877 473.249 261.877ZM575.742 348.599C561.935 348.599 550.742 359.792 550.742 373.599C550.742 387.406 561.935 398.599 575.742 398.599H626.009C639.816 398.599 651.009 387.406 651.009 373.599C651.009 359.792 639.816 348.599 626.009 348.599H575.742ZM125.158 348.348C111.351 348.348 100.158 359.541 100.158 373.348C100.158 387.155 111.351 398.348 125.158 398.348H175.425C189.232 398.348 200.425 387.155 200.425 373.348C200.425 359.541 189.232 348.348 175.425 348.348H125.158ZM570.574 179.678C560.785 169.915 544.914 169.915 535.125 179.678L499.675 215.033C489.886 224.796 489.886 240.626 499.675 250.389C509.464 260.152 525.336 260.152 535.125 250.389L570.574 215.033C580.363 205.27 580.363 189.441 570.574 179.678ZM216.22 179.501C206.431 169.738 190.56 169.738 180.771 179.501C170.982 189.264 170.982 205.092 180.771 214.855L216.22 250.211C226.009 259.974 241.881 259.974 251.67 250.211C261.459 240.448 261.459 224.618 251.67 214.855L216.22 179.501ZM375.208 99.2803C361.364 99.2803 350.142 110.503 350.142 124.347V174.213C350.142 188.057 361.364 199.28 375.208 199.28C389.052 199.28 400.274 188.058 400.274 174.214V124.347C400.274 110.503 389.052 99.2804 375.208 99.2803Z" fill="#F2F2F2"/>
<path d="M400.116 124.067C400.116 110.223 388.894 99 375.05 99C361.206 99 349.983 110.223 349.983 124.067V173.933C349.983 187.777 361.206 199 375.05 199C388.894 199 400.116 187.777 400.116 173.933V124.067Z" fill="#616161"/>
<path d="M216.062 179.22C206.273 169.457 190.402 169.457 180.613 179.22C170.824 188.983 170.824 204.813 180.613 214.576L216.062 249.931C225.851 259.694 241.723 259.694 251.512 249.931C261.301 240.168 261.301 224.338 251.512 214.575L216.062 179.22Z" fill="#616161"/>
<path d="M125 348.067C111.193 348.067 100 359.26 100 373.067C100 386.874 111.193 398.067 125 398.067H175.267C189.074 398.067 200.267 386.874 200.267 373.067C200.267 359.26 189.074 348.067 175.267 348.067H125Z" fill="#616161"/>
<path d="M625.851 398.318C639.658 398.318 650.851 387.125 650.851 373.318C650.851 359.511 639.658 348.318 625.851 348.318H575.584C561.777 348.318 550.584 359.511 550.584 373.318C550.584 387.125 561.777 398.318 575.584 398.318H625.851Z" fill="#616161"/>
<path d="M570.417 214.753C580.206 204.99 580.206 189.161 570.417 179.398C560.628 169.635 544.756 169.635 534.967 179.398L499.518 214.753C489.729 224.516 489.729 240.345 499.518 250.108C509.307 259.871 525.178 259.871 534.967 250.108L570.417 214.753Z" fill="#616161"/>
<path d="M485.857 286.343L411.453 404.312C408.409 408.52 404.707 412.213 400.488 415.25C390.303 422.337 377.728 425.132 365.49 423.027C353.253 420.923 342.341 414.09 335.123 404.01C327.906 393.93 324.964 381.418 326.937 369.188C328.911 356.959 335.64 345.999 345.664 338.687L463.927 264.468C466.616 262.599 469.814 261.597 473.091 261.597C476.368 261.597 479.566 262.599 482.254 264.468C485.631 266.9 487.905 270.566 488.58 274.665C489.255 278.764 488.276 282.962 485.857 286.343Z" fill="#616161"/>
</g>
<defs>
<clipPath id="clip0_19_12">
<rect width="752" height="650" fill="white"/>
</clipPath>
</defs>
</svg>
