<svg width="752" height="650" viewBox="0 0 752 650" fill="none" xmlns="http://www.w3.org/2000/svg">
<g clip-path="url(#clip0_17_2)">
<mask id="mask0_17_2" style="mask-type:luminance" maskUnits="userSpaceOnUse" x="0" y="0" width="752" height="650">
<path d="M752 0H0V650H752V0Z" fill="white"/>
</mask>
<g mask="url(#mask0_17_2)">
<path d="M376 0C583.659 0 752 165.207 752 369C752 473.344 707.868 567.571 636.923 634.688C608.868 661.229 565.31 647.938 538.301 620.332C496.573 577.682 438.33 551.269 373.949 551.423C310.548 551.574 253.222 577.46 211.835 619.171C184.633 646.586 140.98 659.566 113.117 632.822C43.3199 565.83 0 472.38 0 369C3.36127e-05 165.207 168.341 4.85845e-05 376 0Z" fill="#8C6239"/>
<path d="M56 175C122.277 69.9658 240.764 0 375.903 0C511.041 0 629.528 69.9658 695.805 175H56Z" fill="#39B54A"/>
<path d="M376 69C546.104 69 684 200.042 684 361.69C684 444.456 647.849 519.198 589.734 572.435C569.896 590.607 543.659 567.911 525.159 548.378C489.679 510.916 433.458 486.715 370.17 486.715C303.047 486.715 243.874 513.937 208.963 555.331C195.945 570.767 175.451 584.701 160.66 570.954C103.486 517.816 68 443.692 68 361.69C68.0002 200.042 205.896 69 376 69Z" fill="#F2F2F2"/>
<path d="M400.274 124.347C400.274 110.503 389.052 99.28 375.208 99.28C361.364 99.28 350.141 110.503 350.141 124.347V174.213C350.141 188.057 361.364 199.28 375.208 199.28C389.052 199.28 400.274 188.057 400.274 174.213V124.347Z" fill="black"/>
<path d="M216.22 179.5C206.431 169.737 190.56 169.737 180.771 179.5C170.982 189.263 170.982 205.093 180.771 214.856L216.22 250.211C226.009 259.974 241.881 259.974 251.67 250.211C261.459 240.448 261.459 224.618 251.67 214.855L216.22 179.5Z" fill="black"/>
<path d="M125.158 348.347C111.351 348.347 100.158 359.54 100.158 373.347C100.158 387.154 111.351 398.347 125.158 398.347H175.425C189.232 398.347 200.425 387.154 200.425 373.347C200.425 359.54 189.232 348.347 175.425 348.347H125.158Z" fill="black"/>
<path d="M626.009 398.598C639.816 398.598 651.009 387.405 651.009 373.598C651.009 359.791 639.816 348.598 626.009 348.598H575.742C561.935 348.598 550.742 359.791 550.742 373.598C550.742 387.405 561.935 398.598 575.742 398.598H626.009Z" fill="black"/>
<path d="M570.575 215.033C580.364 205.27 580.364 189.441 570.575 179.678C560.786 169.915 544.914 169.915 535.125 179.678L499.676 215.033C489.887 224.796 489.887 240.625 499.676 250.388C509.465 260.151 525.336 260.151 535.125 250.388L570.575 215.033Z" fill="black"/>
<path d="M486.015 286.623L411.611 404.592C408.567 408.8 404.865 412.493 400.646 415.53C390.461 422.617 377.886 425.412 365.648 423.307C353.411 421.203 342.499 414.37 335.281 404.29C328.064 394.21 325.122 381.698 327.095 369.468C329.069 357.239 335.798 346.279 345.822 338.967L464.085 264.748C466.774 262.879 469.972 261.877 473.249 261.877C476.526 261.877 479.724 262.879 482.412 264.748C485.789 267.18 488.063 270.846 488.738 274.945C489.413 279.044 488.434 283.242 486.015 286.623Z" fill="black"/>
</g>
</g>
<defs>
<clipPath id="clip0_17_2">
<rect width="752" height="650" fill="white"/>
</clipPath>
</defs>
</svg>
