<svg width="752" height="650" viewBox="0 0 752 650" fill="none" xmlns="http://www.w3.org/2000/svg">
<path d="M376 0C583.659 0 752 165.207 752 369C752 473.344 707.868 567.571 636.923 634.688C608.868 661.229 565.31 647.938 538.301 620.332C496.573 577.682 438.33 551.269 373.949 551.423C310.548 551.574 253.222 577.46 211.835 619.171C184.633 646.586 140.98 659.566 113.117 632.822C43.3199 565.83 0 472.38 0 369C3.36127e-05 165.207 168.341 4.85845e-05 376 0Z" fill="#8C6239"/>
<path d="M56 175C122.277 69.9658 240.764 0 375.903 0C511.041 0 629.528 69.9658 695.805 175H56Z" fill="#39B54A"/>
<rect x="350.141" y="99.28" width="50.1333" height="100" rx="25.0667" fill="#F2F2F2"/>
<rect width="50.0667" height="100.133" rx="25.0334" transform="matrix(0.708048 -0.706165 0.708048 0.706165 163.046 197.178)" fill="#F2F2F2"/>
<rect x="100.158" y="398.347" width="50" height="100.267" rx="25" transform="rotate(-90 100.158 398.347)" fill="#F2F2F2"/>
<rect x="651.009" y="348.598" width="50" height="100.267" rx="25" transform="rotate(90 651.009 348.598)" fill="#F2F2F2"/>
<rect width="50.0667" height="100.133" rx="25.0334" transform="matrix(0.708048 0.706165 -0.708048 0.706165 552.85 162)" fill="#F2F2F2"/>
<path d="M486.015 286.623L411.611 404.592C408.567 408.8 404.865 412.493 400.646 415.53C390.461 422.617 377.886 425.412 365.648 423.307C353.411 421.203 342.499 414.37 335.281 404.29C328.064 394.21 325.122 381.698 327.095 369.468C329.069 357.239 335.798 346.279 345.822 338.967L464.085 264.748C466.774 262.879 469.972 261.877 473.249 261.877C476.526 261.877 479.724 262.879 482.412 264.748C485.789 267.18 488.063 270.846 488.738 274.945C489.413 279.044 488.434 283.242 486.015 286.623Z" fill="#F2F2F2"/>
</svg>
