<svg width="800" height="800" viewBox="0 0 800 800" fill="none" xmlns="http://www.w3.org/2000/svg">
<path d="M350 400V300L433.333 350L516.667 400L433.333 450L350 500V400Z" fill="#339340" stroke="#339340" stroke-width="66.6667" stroke-linejoin="round"/>
<path d="M187.868 612.132C242.157 666.422 317.157 700 400 700C565.685 700 700 565.685 700 400C700 234.315 565.685 100 400 100C317.157 100 242.157 133.579 187.868 187.868C160.235 215.502 100 283.333 100 283.333" stroke="#39B54A" stroke-width="66.6667" stroke-linecap="round" stroke-linejoin="round"/>
<path d="M100 150V283.333H233.333" stroke="#39B54A" stroke-width="66.6667" stroke-linecap="round" stroke-linejoin="round"/>
<path d="M723.422 319C729.895 344.931 733.333 372.064 733.333 400C733.333 584.094 584.094 733.333 400 733.333C307.961 733.333 224.582 695.987 164.298 635.701C151.281 622.683 151.281 601.579 164.299 588.562C177.316 575.544 198.421 575.544 211.438 588.562C259.731 636.855 326.352 666.667 400 666.667C547.275 666.667 666.667 547.275 666.667 400C666.667 371.76 662.277 344.545 654.143 319H723.422Z" fill="#8C6239"/>
</svg>
