<svg width="144" height="48" viewBox="0 0 144 48" fill="none" xmlns="http://www.w3.org/2000/svg">
<path d="M12.5625 23.9062V29.8125H24.375V18H12.5625V23.9062Z" fill="black"/>
<path d="M24.375 29.5312V41.0625H35.6265V40.1173H47.0625V18H24.375V29.5312Z" fill="#323232"/>
<path d="M0.9375 24.0938V41.625H12.5625V18.1276H47.0625V6.5625H0.9375V24.0938Z" fill="#8ACA00"/>
<path d="M12.5625 35.7188V41.625H24.375V29.8125H12.5625V35.7188Z" fill="#B0B08C"/>
<path d="M54.9357 24V11.6364H60.043C60.9686 11.6364 61.7675 11.8175 62.4396 12.1797C63.1158 12.5379 63.637 13.0389 64.0032 13.6829C64.3694 14.3228 64.5526 15.0674 64.5526 15.9165C64.5526 16.7698 64.3654 17.5163 63.9911 18.1562C63.6209 18.7921 63.0916 19.2852 62.4034 19.6353C61.7152 19.9854 60.8982 20.1605 59.9524 20.1605H56.8011V17.8061H59.397C59.8478 17.8061 60.2241 17.7276 60.5259 17.5707C60.8318 17.4137 61.0632 17.1944 61.2202 16.9126C61.3771 16.6269 61.4556 16.2949 61.4556 15.9165C61.4556 15.5342 61.3771 15.2042 61.2202 14.9265C61.0632 14.6448 60.8318 14.4274 60.5259 14.2745C60.2201 14.1216 59.8438 14.0451 59.397 14.0451H57.924V24H54.9357ZM70.1714 24.1751C69.1975 24.1751 68.3604 23.9759 67.6601 23.5774C66.9638 23.175 66.4265 22.6155 66.0482 21.8991C65.6739 21.1787 65.4868 20.3436 65.4868 19.3938C65.4868 18.44 65.6739 17.6049 66.0482 16.8885C66.4265 16.1681 66.9638 15.6087 67.6601 15.2102C68.3604 14.8078 69.1975 14.6065 70.1714 14.6065C71.1454 14.6065 71.9805 14.8078 72.6768 15.2102C73.377 15.6087 73.9143 16.1681 74.2886 16.8885C74.6669 17.6049 74.8561 18.44 74.8561 19.3938C74.8561 20.3436 74.6669 21.1787 74.2886 21.8991C73.9143 22.6155 73.377 23.175 72.6768 23.5774C71.9805 23.9759 71.1454 24.1751 70.1714 24.1751ZM70.1895 21.9474C70.5437 21.9474 70.8435 21.8388 71.089 21.6214C71.3345 21.4041 71.5217 21.1023 71.6505 20.7159C71.7833 20.3295 71.8497 19.8828 71.8497 19.3757C71.8497 18.8606 71.7833 18.4098 71.6505 18.0234C71.5217 17.6371 71.3345 17.3352 71.089 17.1179C70.8435 16.9006 70.5437 16.7919 70.1895 16.7919C69.8233 16.7919 69.5134 16.9006 69.2599 17.1179C69.0103 17.3352 68.8192 17.6371 68.6863 18.0234C68.5576 18.4098 68.4932 18.8606 68.4932 19.3757C68.4932 19.8828 68.5576 20.3295 68.6863 20.7159C68.8192 21.1023 69.0103 21.4041 69.2599 21.6214C69.5134 21.8388 69.8233 21.9474 70.1895 21.9474ZM79.3204 11.6364V24H76.3683V11.6364H79.3204ZM84.1515 11.6364V24H81.1994V11.6364H84.1515ZM87.8355 27.4773C87.4813 27.4773 87.1473 27.4491 86.8334 27.3928C86.5194 27.3404 86.2498 27.27 86.0244 27.1815L86.6764 25.0384C86.9662 25.1349 87.2278 25.1913 87.4612 25.2074C87.6987 25.2235 87.9019 25.1853 88.0709 25.0927C88.244 25.0041 88.3768 24.8452 88.4694 24.6158L88.5841 24.3381L85.2879 14.7273H88.3788L90.0873 21.3438H90.1839L91.9165 14.7273H95.0255L91.5301 24.8874C91.3611 25.3945 91.1216 25.8413 90.8117 26.2276C90.5058 26.618 90.1094 26.9239 89.6224 27.1452C89.1395 27.3666 88.5438 27.4773 87.8355 27.4773ZM96.1574 11.6364H99.858L102.997 19.2912H103.142L106.281 11.6364H109.982V24H107.072V16.4055H106.97L103.999 23.9215H102.14L99.1698 16.3633H99.0672V24H96.1574V11.6364ZM123.069 16.1158H120.05C120.01 15.8059 119.927 15.5262 119.803 15.2766C119.678 15.0271 119.513 14.8138 119.308 14.6367C119.102 14.4596 118.859 14.3248 118.577 14.2322C118.299 14.1357 117.991 14.0874 117.653 14.0874C117.054 14.0874 116.537 14.2343 116.102 14.5281C115.671 14.8219 115.339 15.2464 115.106 15.8018C114.876 16.3572 114.762 17.0294 114.762 17.8182C114.762 18.6392 114.878 19.3274 115.112 19.8828C115.349 20.4342 115.681 20.8507 116.108 21.1325C116.539 21.4102 117.048 21.549 117.635 21.549C117.965 21.549 118.265 21.5067 118.535 21.4222C118.808 21.3377 119.048 21.215 119.253 21.054C119.462 20.889 119.634 20.6897 119.766 20.4563C119.903 20.2189 119.998 19.9512 120.05 19.6534L123.069 19.6715C123.016 20.2189 122.857 20.7582 122.592 21.2894C122.33 21.8207 121.97 22.3056 121.511 22.7443C121.052 23.179 120.493 23.5251 119.833 23.7827C119.177 24.0402 118.424 24.169 117.575 24.169C116.456 24.169 115.454 23.9235 114.569 23.4325C113.687 22.9375 112.991 22.2171 112.48 21.2713C111.969 20.3255 111.713 19.1745 111.713 17.8182C111.713 16.4579 111.973 15.3048 112.492 14.359C113.011 13.4132 113.713 12.6948 114.599 12.2038C115.484 11.7128 116.476 11.4673 117.575 11.4673C118.324 11.4673 119.016 11.572 119.652 11.7812C120.288 11.9865 120.847 12.2884 121.33 12.6868C121.813 13.0812 122.205 13.5662 122.507 14.1417C122.809 14.7172 122.996 15.3752 123.069 16.1158Z" fill="#14191E"/>
<path d="M65.1584 33.1158H62.1399C62.0997 32.8059 62.0172 32.5262 61.8924 32.2766C61.7676 32.0271 61.6026 31.8138 61.3974 31.6367C61.1921 31.4596 60.9486 31.3248 60.6669 31.2322C60.3892 31.1357 60.0813 31.0874 59.7433 31.0874C59.1436 31.0874 58.6264 31.2343 58.1918 31.5281C57.7611 31.8219 57.4291 32.2464 57.1957 32.8018C56.9663 33.3572 56.8516 34.0294 56.8516 34.8182C56.8516 35.6392 56.9683 36.3274 57.2017 36.8828C57.4392 37.4342 57.7712 37.8507 58.1978 38.1325C58.6284 38.4102 59.1375 38.549 59.7251 38.549C60.0552 38.549 60.355 38.5067 60.6246 38.4222C60.8983 38.3377 61.1378 38.215 61.343 38.054C61.5523 37.889 61.7234 37.6897 61.8562 37.4563C61.993 37.2189 62.0876 36.9512 62.1399 36.6534L65.1584 36.6715C65.1061 37.2189 64.9471 37.7582 64.6815 38.2894C64.4199 38.8207 64.0597 39.3056 63.6009 39.7443C63.142 40.179 62.5826 40.5251 61.9226 40.7827C61.2666 41.0402 60.514 41.169 59.6648 41.169C58.5459 41.169 57.5438 40.9235 56.6584 40.4325C55.777 39.9375 55.0807 39.2171 54.5696 38.2713C54.0585 37.3255 53.8029 36.1745 53.8029 34.8182C53.8029 33.4579 54.0625 32.3048 54.5817 31.359C55.1009 30.4132 55.8031 29.6948 56.6886 29.2038C57.574 28.7128 58.5661 28.4673 59.6648 28.4673C60.4134 28.4673 61.1056 28.572 61.7415 28.7812C62.3774 28.9865 62.9368 29.2884 63.4197 29.6868C63.9027 30.0812 64.2951 30.5662 64.5969 31.1417C64.8988 31.7172 65.0859 32.3752 65.1584 33.1158ZM71.1968 41.1751C70.2229 41.1751 69.3857 40.9759 68.6855 40.5774C67.9892 40.175 67.4519 39.6155 67.0736 38.8991C66.6993 38.1787 66.5122 37.3436 66.5122 36.3938C66.5122 35.44 66.6993 34.6049 67.0736 33.8885C67.4519 33.1681 67.9892 32.6087 68.6855 32.2102C69.3857 31.8078 70.2229 31.6065 71.1968 31.6065C72.1708 31.6065 73.0059 31.8078 73.7021 32.2102C74.4024 32.6087 74.9397 33.1681 75.314 33.8885C75.6923 34.6049 75.8815 35.44 75.8815 36.3938C75.8815 37.3436 75.6923 38.1787 75.314 38.8991C74.9397 39.6155 74.4024 40.175 73.7021 40.5774C73.0059 40.9759 72.1708 41.1751 71.1968 41.1751ZM71.2149 38.9474C71.5691 38.9474 71.8689 38.8388 72.1144 38.6214C72.3599 38.4041 72.5471 38.1023 72.6759 37.7159C72.8087 37.3295 72.8751 36.8828 72.8751 36.3757C72.8751 35.8606 72.8087 35.4098 72.6759 35.0234C72.5471 34.6371 72.3599 34.3352 72.1144 34.1179C71.8689 33.9006 71.5691 33.7919 71.2149 33.7919C70.8487 33.7919 70.5388 33.9006 70.2852 34.1179C70.0357 34.3352 69.8445 34.6371 69.7117 35.0234C69.5829 35.4098 69.5186 35.8606 69.5186 36.3757C69.5186 36.8828 69.5829 37.3295 69.7117 37.7159C69.8445 38.1023 70.0357 38.4041 70.2852 38.6214C70.5388 38.8388 70.8487 38.9474 71.2149 38.9474ZM80.3458 35.7116V41H77.3937V31.7273H80.2009V33.4297H80.3035C80.5088 32.8622 80.8589 32.4175 81.354 32.0955C81.849 31.7695 82.4386 31.6065 83.1228 31.6065C83.7748 31.6065 84.3402 31.7534 84.8192 32.0472C85.3021 32.337 85.6764 32.7435 85.942 33.2667C86.2117 33.7859 86.3445 34.3936 86.3405 35.0898V41H83.3884V35.6694C83.3924 35.1542 83.2616 34.7518 82.996 34.462C82.7344 34.1722 82.3702 34.0273 81.9033 34.0273C81.5934 34.0273 81.3198 34.0958 81.0823 34.2326C80.8489 34.3654 80.6678 34.5566 80.539 34.8061C80.4142 35.0556 80.3498 35.3575 80.3458 35.7116ZM93.4022 31.7273V33.9006H87.5524V31.7273H93.4022ZM88.7779 29.5057H91.7299V38.0842C91.7299 38.2653 91.7581 38.4122 91.8145 38.5249C91.8748 38.6335 91.9614 38.712 92.074 38.7603C92.1867 38.8046 92.3216 38.8267 92.4785 38.8267C92.5912 38.8267 92.7099 38.8166 92.8347 38.7965C92.9635 38.7724 93.0601 38.7522 93.1245 38.7362L93.5712 40.8672C93.4303 40.9074 93.2311 40.9577 92.9735 41.0181C92.72 41.0785 92.4161 41.1167 92.062 41.1328C91.3697 41.165 90.7761 41.0845 90.2811 40.8913C89.7901 40.6941 89.4138 40.3883 89.1522 39.9737C88.8946 39.5592 88.7698 39.038 88.7779 38.4102V29.5057ZM94.9084 41V31.7273H97.8604V41H94.9084ZM96.3874 30.6467C95.9729 30.6467 95.6167 30.5098 95.3189 30.2362C95.0211 29.9585 94.8722 29.6244 94.8722 29.234C94.8722 28.8477 95.0211 28.5176 95.3189 28.244C95.6167 27.9663 95.9729 27.8274 96.3874 27.8274C96.806 27.8274 97.1622 27.9663 97.456 28.244C97.7538 28.5176 97.9027 28.8477 97.9027 29.234C97.9027 29.6244 97.7538 29.9585 97.456 30.2362C97.1622 30.5098 96.806 30.6467 96.3874 30.6467ZM102.691 35.7116V41H99.7394V31.7273H102.547V33.4297H102.649C102.854 32.8622 103.205 32.4175 103.7 32.0955C104.195 31.7695 104.784 31.6065 105.468 31.6065C106.12 31.6065 106.686 31.7534 107.165 32.0472C107.648 32.337 108.022 32.7435 108.288 33.2667C108.557 33.7859 108.69 34.3936 108.686 35.0898V41H105.734V35.6694C105.738 35.1542 105.607 34.7518 105.342 34.462C105.08 34.1722 104.716 34.0273 104.249 34.0273C103.939 34.0273 103.665 34.0958 103.428 34.2326C103.195 34.3654 103.013 34.5566 102.885 34.8061C102.76 35.0556 102.696 35.3575 102.691 35.7116ZM116.496 36.9975V31.7273H119.442V41H116.629V39.2734H116.533C116.327 39.8409 115.977 40.2917 115.482 40.6257C114.991 40.9557 114.398 41.1207 113.701 41.1207C113.069 41.1207 112.514 40.9759 112.035 40.6861C111.556 40.3963 111.184 39.9918 110.918 39.4727C110.653 38.9495 110.518 38.3377 110.514 37.6374V31.7273H113.466V37.0579C113.47 37.561 113.603 37.9574 113.864 38.2472C114.126 38.5369 114.482 38.6818 114.933 38.6818C115.227 38.6818 115.49 38.6174 115.724 38.4886C115.961 38.3558 116.148 38.1647 116.285 37.9151C116.426 37.6616 116.496 37.3557 116.496 36.9975ZM125.656 41.1751C124.686 41.1751 123.849 40.9839 123.145 40.6016C122.444 40.2152 121.905 39.6658 121.527 38.9535C121.152 38.2371 120.965 37.3859 120.965 36.3999C120.965 35.442 121.154 34.6049 121.533 33.8885C121.911 33.1681 122.444 32.6087 123.133 32.2102C123.821 31.8078 124.632 31.6065 125.565 31.6065C126.225 31.6065 126.829 31.7092 127.377 31.9144C127.924 32.1197 128.397 32.4235 128.795 32.826C129.194 33.2285 129.504 33.7255 129.725 34.3171C129.946 34.9047 130.057 35.5788 130.057 36.3395V37.076H121.998V35.3615H127.31C127.306 35.0476 127.232 34.7679 127.087 34.5224C126.942 34.2769 126.743 34.0857 126.489 33.9489C126.24 33.808 125.952 33.7376 125.626 33.7376C125.296 33.7376 125 33.812 124.738 33.9609C124.477 34.1058 124.27 34.305 124.117 34.5586C123.964 34.8081 123.883 35.0919 123.875 35.4098V37.1545C123.875 37.5328 123.95 37.8648 124.098 38.1506C124.247 38.4323 124.459 38.6516 124.732 38.8086C125.006 38.9656 125.332 39.044 125.71 39.044C125.972 39.044 126.209 39.0078 126.423 38.9354C126.636 38.8629 126.819 38.7563 126.972 38.6154C127.125 38.4746 127.24 38.3015 127.316 38.0962L130.027 38.1747C129.914 38.7824 129.667 39.3117 129.284 39.7624C128.906 40.2092 128.409 40.5573 127.793 40.8068C127.177 41.0523 126.465 41.1751 125.656 41.1751ZM134.951 41.1328C134.267 41.1328 133.645 40.9557 133.086 40.6016C132.527 40.2474 132.08 39.7161 131.746 39.0078C131.412 38.2995 131.245 37.4201 131.245 36.3697C131.245 35.279 131.418 34.3815 131.764 33.6772C132.11 32.9729 132.563 32.4517 133.122 32.1136C133.686 31.7756 134.291 31.6065 134.939 31.6065C135.426 31.6065 135.843 31.6911 136.189 31.8601C136.535 32.0251 136.821 32.2384 137.046 32.5C137.272 32.7616 137.443 33.0333 137.559 33.315H137.62V28.6364H140.572V41H137.65V39.4968H137.559C137.435 39.7826 137.257 40.0502 137.028 40.2997C136.799 40.5492 136.511 40.7505 136.165 40.9034C135.823 41.0563 135.418 41.1328 134.951 41.1328ZM135.978 38.8327C136.336 38.8327 136.642 38.7321 136.895 38.5309C137.149 38.3256 137.344 38.0379 137.481 37.6676C137.618 37.2973 137.686 36.8627 137.686 36.3636C137.686 35.8565 137.618 35.4199 137.481 35.0536C137.348 34.6874 137.153 34.4057 136.895 34.2085C136.642 34.0112 136.336 33.9126 135.978 33.9126C135.611 33.9126 135.301 34.0133 135.048 34.2145C134.794 34.4157 134.601 34.6995 134.468 35.0657C134.34 35.4319 134.275 35.8646 134.275 36.3636C134.275 36.8627 134.342 37.2973 134.474 37.6676C134.607 38.0379 134.798 38.3256 135.048 38.5309C135.301 38.7321 135.611 38.8327 135.978 38.8327Z" fill="#14191E"/>
</svg>
