<svg width="505" height="293" viewBox="0 0 505 293" fill="none" xmlns="http://www.w3.org/2000/svg">
<g clip-path="url(#clip0_1_143)">
<path d="M489.118 0H15C6.71573 0 0 6.71573 0 15V121.076C0 129.36 6.71573 136.076 15 136.076H489.118C497.402 136.076 504.118 129.36 504.118 121.076V15C504.118 6.71573 497.402 0 489.118 0Z" fill="#F8F8F8"/>
<path d="M151.982 81V54.8182H162.797C164.757 54.8182 166.449 55.2017 167.872 55.9688C169.304 56.7273 170.408 57.7884 171.183 59.152C171.959 60.5071 172.347 62.0838 172.347 63.8821C172.347 65.6889 171.95 67.2699 171.158 68.625C170.374 69.9716 169.253 71.0156 167.795 71.7571C166.338 72.4986 164.608 72.8693 162.605 72.8693H155.932V67.8835H161.429C162.384 67.8835 163.18 67.7173 163.82 67.3849C164.467 67.0526 164.957 66.5881 165.29 65.9915C165.622 65.3864 165.788 64.6832 165.788 63.8821C165.788 63.0724 165.622 62.3736 165.29 61.7855C164.957 61.1889 164.467 60.7287 163.82 60.4048C163.172 60.081 162.375 59.919 161.429 59.919H158.31V81H151.982ZM184.245 81.3707C182.183 81.3707 180.41 80.9489 178.927 80.1051C177.453 79.2528 176.315 78.0682 175.514 76.5511C174.721 75.0256 174.325 73.2571 174.325 71.2457C174.325 69.2259 174.721 67.4574 175.514 65.9403C176.315 64.4148 177.453 63.2301 178.927 62.3864C180.41 61.5341 182.183 61.108 184.245 61.108C186.308 61.108 188.076 61.5341 189.551 62.3864C191.034 63.2301 192.172 64.4148 192.964 65.9403C193.765 67.4574 194.166 69.2259 194.166 71.2457C194.166 73.2571 193.765 75.0256 192.964 76.5511C192.172 78.0682 191.034 79.2528 189.551 80.1051C188.076 80.9489 186.308 81.3707 184.245 81.3707ZM184.284 76.6534C185.034 76.6534 185.669 76.4233 186.189 75.9631C186.708 75.5028 187.105 74.8636 187.377 74.0455C187.659 73.2273 187.799 72.2812 187.799 71.2074C187.799 70.1165 187.659 69.1619 187.377 68.3438C187.105 67.5256 186.708 66.8864 186.189 66.4261C185.669 65.9659 185.034 65.7358 184.284 65.7358C183.508 65.7358 182.852 65.9659 182.315 66.4261C181.787 66.8864 181.382 67.5256 181.1 68.3438C180.828 69.1619 180.691 70.1165 180.691 71.2074C180.691 72.2812 180.828 73.2273 181.1 74.0455C181.382 74.8636 181.787 75.5028 182.315 75.9631C182.852 76.4233 183.508 76.6534 184.284 76.6534ZM203.62 54.8182V81H197.368V54.8182H203.62ZM213.85 54.8182V81H207.599V54.8182H213.85ZM221.652 88.3636C220.902 88.3636 220.194 88.304 219.529 88.1847C218.865 88.0739 218.294 87.9247 217.816 87.7372L219.197 83.1989C219.811 83.4034 220.365 83.5227 220.859 83.5568C221.362 83.5909 221.792 83.5099 222.15 83.3139C222.517 83.1264 222.798 82.7898 222.994 82.304L223.237 81.7159L216.257 61.3636H222.802L226.42 75.375H226.625L230.294 61.3636H236.877L229.475 82.8793C229.118 83.9531 228.61 84.8991 227.954 85.7173C227.306 86.544 226.467 87.1918 225.436 87.6605C224.413 88.1293 223.152 88.3636 221.652 88.3636ZM239.275 54.8182H247.111L253.759 71.0284H254.066L260.713 54.8182H268.55V81H262.388V64.9176H262.171L255.881 80.8338H251.944L245.654 64.8281H245.436V81H239.275V54.8182ZM296.263 64.304H289.871C289.786 63.6477 289.611 63.0554 289.347 62.527C289.082 61.9986 288.733 61.5469 288.298 61.1719C287.864 60.7969 287.348 60.5114 286.751 60.3153C286.163 60.1108 285.511 60.0085 284.795 60.0085C283.526 60.0085 282.43 60.3196 281.51 60.9418C280.598 61.5639 279.895 62.4631 279.401 63.6392C278.915 64.8153 278.672 66.2386 278.672 67.9091C278.672 69.6477 278.919 71.1051 279.413 72.2812C279.916 73.4489 280.619 74.331 281.523 74.9276C282.435 75.5156 283.513 75.8097 284.757 75.8097C285.456 75.8097 286.091 75.7202 286.662 75.5412C287.241 75.3622 287.749 75.1023 288.183 74.7614C288.626 74.4119 288.989 73.9901 289.27 73.4957C289.56 72.9929 289.76 72.4261 289.871 71.7955L296.263 71.8338C296.152 72.9929 295.815 74.1349 295.253 75.2599C294.699 76.3849 293.936 77.4119 292.964 78.3409C291.993 79.2614 290.808 79.9943 289.411 80.5398C288.021 81.0852 286.428 81.358 284.629 81.358C282.26 81.358 280.138 80.8381 278.263 79.7983C276.396 78.75 274.922 77.2244 273.839 75.2216C272.757 73.2187 272.216 70.7812 272.216 67.9091C272.216 65.0284 272.766 62.5866 273.865 60.5838C274.964 58.581 276.452 57.0597 278.327 56.0199C280.202 54.9801 282.303 54.4602 284.629 54.4602C286.214 54.4602 287.68 54.6818 289.027 55.125C290.374 55.5597 291.558 56.1989 292.581 57.0426C293.604 57.8778 294.435 58.9048 295.074 60.1236C295.713 61.3423 296.109 62.7358 296.263 64.304Z" fill="black"/>
<path d="M322.436 63H320.033C319.854 62.1051 319.53 61.2784 319.061 60.5199C318.601 59.7528 318.021 59.0838 317.322 58.5128C316.624 57.9418 315.831 57.4986 314.945 57.1832C314.058 56.8679 313.099 56.7102 312.068 56.7102C310.415 56.7102 308.906 57.1406 307.543 58.0014C306.188 58.8622 305.101 60.1278 304.283 61.7983C303.473 63.4602 303.068 65.4972 303.068 67.9091C303.068 70.3381 303.473 72.3835 304.283 74.0455C305.101 75.7074 306.188 76.9687 307.543 77.8295C308.906 78.6818 310.415 79.108 312.068 79.108C313.099 79.108 314.058 78.9503 314.945 78.6349C315.831 78.3196 316.624 77.8807 317.322 77.3182C318.021 76.7472 318.601 76.0781 319.061 75.3111C319.53 74.544 319.854 73.7131 320.033 72.8182H322.436C322.223 74.0199 321.822 75.1406 321.234 76.1804C320.655 77.2116 319.913 78.1151 319.01 78.8906C318.115 79.6662 317.084 80.2713 315.916 80.706C314.749 81.1406 313.466 81.358 312.068 81.358C309.869 81.358 307.918 80.8082 306.213 79.7088C304.509 78.6009 303.17 77.0412 302.199 75.0298C301.236 73.0185 300.754 70.6449 300.754 67.9091C300.754 65.1733 301.236 62.7997 302.199 60.7884C303.17 58.777 304.509 57.2216 306.213 56.1222C307.918 55.0142 309.869 54.4602 312.068 54.4602C313.466 54.4602 314.749 54.6776 315.916 55.1122C317.084 55.5384 318.115 56.1435 319.01 56.9276C319.913 57.7031 320.655 58.6065 321.234 59.6378C321.822 60.669 322.223 61.7898 322.436 63ZM335.211 81.4091C333.515 81.4091 332.015 80.9787 330.711 80.1179C329.415 79.2571 328.401 78.0682 327.668 76.5511C326.935 75.0256 326.569 73.2656 326.569 71.2713C326.569 69.2599 326.935 67.4915 327.668 65.9659C328.401 64.4318 329.415 63.2386 330.711 62.3864C332.015 61.5256 333.515 61.0952 335.211 61.0952C336.907 61.0952 338.402 61.5256 339.698 62.3864C340.993 63.2472 342.007 64.4403 342.74 65.9659C343.482 67.4915 343.853 69.2599 343.853 71.2713C343.853 73.2656 343.486 75.0256 342.753 76.5511C342.02 78.0682 341.002 79.2571 339.698 80.1179C338.402 80.9787 336.907 81.4091 335.211 81.4091ZM335.211 79.3253C336.574 79.3253 337.729 78.9588 338.675 78.2259C339.621 77.4929 340.337 76.517 340.823 75.2983C341.317 74.0795 341.564 72.7372 341.564 71.2713C341.564 69.8054 341.317 68.4588 340.823 67.2315C340.337 66.0043 339.621 65.0199 338.675 64.2784C337.729 63.5369 336.574 63.1662 335.211 63.1662C333.855 63.1662 332.701 63.5369 331.746 64.2784C330.8 65.0199 330.08 66.0043 329.586 67.2315C329.1 68.4588 328.857 69.8054 328.857 71.2713C328.857 72.7372 329.1 74.0795 329.586 75.2983C330.08 76.517 330.8 77.4929 331.746 78.2259C332.692 78.9588 333.847 79.3253 335.211 79.3253ZM351.124 68.7273V81H348.848V61.3636H351.06V64.4446H351.264C351.724 63.4389 352.44 62.6335 353.412 62.0284C354.392 61.4148 355.602 61.108 357.043 61.108C358.364 61.108 359.523 61.3849 360.52 61.9389C361.526 62.4844 362.305 63.2898 362.859 64.3551C363.422 65.4205 363.703 66.7287 363.703 68.2798V81H361.428V68.4205C361.428 66.8097 360.976 65.5355 360.072 64.598C359.178 63.6605 357.976 63.1918 356.467 63.1918C355.436 63.1918 354.52 63.4134 353.719 63.8565C352.918 64.2997 352.283 64.9389 351.814 65.7741C351.354 66.6009 351.124 67.5852 351.124 68.7273ZM377.43 61.3636V63.3452H368.059V61.3636H377.43ZM370.987 56.6591H373.275V75.8736C373.275 76.6918 373.416 77.3352 373.697 77.804C373.978 78.2642 374.345 78.5923 374.797 78.7884C375.248 78.9759 375.73 79.0696 376.241 79.0696C376.539 79.0696 376.795 79.0526 377.008 79.0185C377.221 78.9759 377.409 78.9332 377.571 78.8906L378.056 80.9489C377.835 81.0341 377.562 81.1108 377.238 81.179C376.914 81.2557 376.514 81.294 376.037 81.294C375.201 81.294 374.396 81.1108 373.62 80.7443C372.853 80.3778 372.223 79.8324 371.728 79.108C371.234 78.3835 370.987 77.4844 370.987 76.4105V56.6591ZM382.624 81V61.3636H384.912V81H382.624ZM383.787 57.9886C383.318 57.9886 382.918 57.831 382.585 57.5156C382.253 57.1918 382.087 56.804 382.087 56.3523C382.087 55.9006 382.253 55.517 382.585 55.2017C382.918 54.8778 383.318 54.7159 383.787 54.7159C384.256 54.7159 384.656 54.8778 384.989 55.2017C385.321 55.517 385.487 55.9006 385.487 56.3523C385.487 56.804 385.321 57.1918 384.989 57.5156C384.656 57.831 384.256 57.9886 383.787 57.9886ZM393.206 68.7273V81H390.93V61.3636H393.142V64.4446H393.346C393.806 63.4389 394.522 62.6335 395.494 62.0284C396.474 61.4148 397.684 61.108 399.125 61.108C400.446 61.108 401.605 61.3849 402.602 61.9389C403.608 62.4844 404.387 63.2898 404.941 64.3551C405.504 65.4205 405.785 66.7287 405.785 68.2798V81H403.51V68.4205C403.51 66.8097 403.058 65.5355 402.154 64.598C401.26 63.6605 400.058 63.1918 398.549 63.1918C397.518 63.1918 396.602 63.4134 395.801 63.8565C395 64.2997 394.365 64.9389 393.896 65.7741C393.436 66.6009 393.206 67.5852 393.206 68.7273ZM424.255 73.4957V61.3636H426.531V81H424.255V77.7401H424.076C423.616 78.7457 422.887 79.5852 421.89 80.2585C420.893 80.9233 419.674 81.2557 418.234 81.2557C416.981 81.2557 415.869 80.983 414.897 80.4375C413.925 79.8835 413.163 79.0739 412.609 78.0085C412.055 76.9432 411.778 75.6349 411.778 74.0838V61.3636H414.053V73.9432C414.053 75.4773 414.505 76.7131 415.408 77.6506C416.312 78.5795 417.471 79.044 418.886 79.044C419.772 79.044 420.624 78.831 421.442 78.4048C422.261 77.9787 422.934 77.3565 423.462 76.5384C423.991 75.7116 424.255 74.6974 424.255 73.4957ZM440.494 81.4091C438.662 81.4091 437.076 80.983 435.738 80.1307C434.4 79.2699 433.365 78.081 432.632 76.5639C431.907 75.0384 431.545 73.2827 431.545 71.2969C431.545 69.3196 431.907 67.5639 432.632 66.0298C433.365 64.4872 434.375 63.2812 435.662 62.4119C436.957 61.5341 438.453 61.0952 440.149 61.0952C441.214 61.0952 442.241 61.2912 443.23 61.6832C444.218 62.0668 445.105 62.6591 445.889 63.4602C446.681 64.2528 447.308 65.2543 447.768 66.4645C448.228 67.6662 448.458 69.0895 448.458 70.7344V71.8594H433.118V69.8523H446.132C446.132 68.5909 445.876 67.4574 445.365 66.4517C444.862 65.4375 444.159 64.6364 443.255 64.0483C442.36 63.4602 441.325 63.1662 440.149 63.1662C438.904 63.1662 437.809 63.4986 436.863 64.1634C435.917 64.8281 435.176 65.706 434.639 66.7969C434.11 67.8878 433.842 69.081 433.833 70.3764V71.5781C433.833 73.1378 434.102 74.5014 434.639 75.669C435.184 76.8281 435.956 77.7273 436.953 78.3665C437.95 79.0057 439.13 79.3253 440.494 79.3253C441.423 79.3253 442.237 79.1804 442.936 78.8906C443.643 78.6009 444.235 78.2131 444.713 77.7273C445.199 77.233 445.565 76.6918 445.812 76.1037L447.973 76.8068C447.674 77.6335 447.184 78.3963 446.502 79.0952C445.829 79.794 444.985 80.3565 443.971 80.7827C442.966 81.2003 441.806 81.4091 440.494 81.4091ZM460.543 81.4091C458.932 81.4091 457.521 80.983 456.311 80.1307C455.101 79.2784 454.155 78.0895 453.473 76.5639C452.8 75.0384 452.463 73.2614 452.463 71.233C452.463 69.2131 452.8 67.4446 453.473 65.9276C454.155 64.402 455.105 63.2173 456.324 62.3736C457.543 61.5213 458.962 61.0952 460.581 61.0952C461.774 61.0952 462.767 61.3082 463.56 61.7344C464.352 62.152 464.987 62.6719 465.464 63.294C465.942 63.9162 466.313 64.5213 466.577 65.1094H466.781V54.8182H469.07V81H466.845V77.3565H466.577C466.313 77.9531 465.938 78.5668 465.452 79.1974C464.966 79.8196 464.322 80.3437 463.521 80.7699C462.729 81.196 461.736 81.4091 460.543 81.4091ZM460.811 79.3253C462.081 79.3253 463.163 78.9801 464.058 78.2898C464.953 77.5909 465.635 76.6321 466.104 75.4134C466.581 74.1861 466.82 72.7798 466.82 71.1946C466.82 69.6264 466.585 68.2415 466.116 67.0398C465.648 65.8295 464.966 64.8835 464.071 64.2017C463.176 63.5114 462.089 63.1662 460.811 63.1662C459.499 63.1662 458.391 63.5241 457.487 64.2401C456.592 64.9474 455.911 65.9062 455.442 67.1165C454.982 68.3267 454.751 69.6861 454.751 71.1946C454.751 72.7202 454.986 74.0966 455.455 75.3239C455.923 76.5511 456.605 77.527 457.5 78.2514C458.403 78.9673 459.507 79.3253 460.811 79.3253Z" fill="black"/>
<path d="M65.1719 67.8047V80.1094H89.7812V55.5H65.1719V67.8047Z" fill="black"/>
<path d="M89.7812 79.5234V103.547H113.222V101.578H137.047V55.5H89.7812V79.5234Z" fill="#202020"/>
<path d="M40.9531 68.1953V104.719H65.1719V55.7659H137.047V31.6719H40.9531V68.1953Z" fill="#454545"/>
<path d="M65.1719 92.4141V104.719H89.7812V80.1094H65.1719V92.4141Z" fill="#7C7C7C"/>
<path d="M489.118 156.076H15C6.71573 156.076 0 162.792 0 171.076V277.152C0 285.436 6.71573 292.152 15 292.152H489.118C497.402 292.152 504.118 285.436 504.118 277.152V171.076C504.118 162.792 497.402 156.076 489.118 156.076Z" fill="#202020"/>
<path d="M65.1719 223.805V236.109H89.7812V211.5H65.1719V223.805Z" fill="black"/>
<path d="M89.7812 235.523V259.547H113.222V257.578H137.047V211.5H89.7812V235.523Z" fill="#323232"/>
<path d="M40.9531 224.195V260.719H65.1719V211.766H137.047V187.672H40.9531V224.195Z" fill="#A1A1A1"/>
<path d="M65.1719 248.414V260.719H89.7812V236.109H65.1719V248.414Z" fill="#ACACAC"/>
<path d="M151.982 237V210.818H162.797C164.757 210.818 166.449 211.202 167.872 211.969C169.304 212.727 170.408 213.788 171.183 215.152C171.959 216.507 172.347 218.084 172.347 219.882C172.347 221.689 171.95 223.27 171.158 224.625C170.374 225.972 169.253 227.016 167.795 227.757C166.338 228.499 164.608 228.869 162.605 228.869H155.932V223.884H161.429C162.384 223.884 163.18 223.717 163.82 223.385C164.467 223.053 164.957 222.588 165.29 221.991C165.622 221.386 165.788 220.683 165.788 219.882C165.788 219.072 165.622 218.374 165.29 217.786C164.957 217.189 164.467 216.729 163.82 216.405C163.172 216.081 162.375 215.919 161.429 215.919H158.31V237H151.982ZM184.245 237.371C182.183 237.371 180.41 236.949 178.927 236.105C177.453 235.253 176.315 234.068 175.514 232.551C174.721 231.026 174.325 229.257 174.325 227.246C174.325 225.226 174.721 223.457 175.514 221.94C176.315 220.415 177.453 219.23 178.927 218.386C180.41 217.534 182.183 217.108 184.245 217.108C186.308 217.108 188.076 217.534 189.551 218.386C191.034 219.23 192.172 220.415 192.964 221.94C193.765 223.457 194.166 225.226 194.166 227.246C194.166 229.257 193.765 231.026 192.964 232.551C192.172 234.068 191.034 235.253 189.551 236.105C188.076 236.949 186.308 237.371 184.245 237.371ZM184.284 232.653C185.034 232.653 185.669 232.423 186.189 231.963C186.708 231.503 187.105 230.864 187.377 230.045C187.659 229.227 187.799 228.281 187.799 227.207C187.799 226.116 187.659 225.162 187.377 224.344C187.105 223.526 186.708 222.886 186.189 222.426C185.669 221.966 185.034 221.736 184.284 221.736C183.508 221.736 182.852 221.966 182.315 222.426C181.787 222.886 181.382 223.526 181.1 224.344C180.828 225.162 180.691 226.116 180.691 227.207C180.691 228.281 180.828 229.227 181.1 230.045C181.382 230.864 181.787 231.503 182.315 231.963C182.852 232.423 183.508 232.653 184.284 232.653ZM203.62 210.818V237H197.368V210.818H203.62ZM213.85 210.818V237H207.599V210.818H213.85ZM221.652 244.364C220.902 244.364 220.194 244.304 219.529 244.185C218.865 244.074 218.294 243.925 217.816 243.737L219.197 239.199C219.811 239.403 220.365 239.523 220.859 239.557C221.362 239.591 221.792 239.51 222.15 239.314C222.517 239.126 222.798 238.79 222.994 238.304L223.237 237.716L216.257 217.364H222.802L226.42 231.375H226.625L230.294 217.364H236.877L229.475 238.879C229.118 239.953 228.61 240.899 227.954 241.717C227.306 242.544 226.467 243.192 225.436 243.661C224.413 244.129 223.152 244.364 221.652 244.364ZM239.275 210.818H247.111L253.759 227.028H254.066L260.713 210.818H268.55V237H262.388V220.918H262.171L255.881 236.834H251.944L245.654 220.828H245.436V237H239.275V210.818ZM296.263 220.304H289.871C289.786 219.648 289.611 219.055 289.347 218.527C289.082 217.999 288.733 217.547 288.298 217.172C287.864 216.797 287.348 216.511 286.751 216.315C286.163 216.111 285.511 216.009 284.795 216.009C283.526 216.009 282.43 216.32 281.51 216.942C280.598 217.564 279.895 218.463 279.401 219.639C278.915 220.815 278.672 222.239 278.672 223.909C278.672 225.648 278.919 227.105 279.413 228.281C279.916 229.449 280.619 230.331 281.523 230.928C282.435 231.516 283.513 231.81 284.757 231.81C285.456 231.81 286.091 231.72 286.662 231.541C287.241 231.362 287.749 231.102 288.183 230.761C288.626 230.412 288.989 229.99 289.27 229.496C289.56 228.993 289.76 228.426 289.871 227.795L296.263 227.834C296.152 228.993 295.815 230.135 295.253 231.26C294.699 232.385 293.936 233.412 292.964 234.341C291.993 235.261 290.808 235.994 289.411 236.54C288.021 237.085 286.428 237.358 284.629 237.358C282.26 237.358 280.138 236.838 278.263 235.798C276.396 234.75 274.922 233.224 273.839 231.222C272.757 229.219 272.216 226.781 272.216 223.909C272.216 221.028 272.766 218.587 273.865 216.584C274.964 214.581 276.452 213.06 278.327 212.02C280.202 210.98 282.303 210.46 284.629 210.46C286.214 210.46 287.68 210.682 289.027 211.125C290.374 211.56 291.558 212.199 292.581 213.043C293.604 213.878 294.435 214.905 295.074 216.124C295.713 217.342 296.109 218.736 296.263 220.304Z" fill="white"/>
<path d="M322.436 219H320.033C319.854 218.105 319.53 217.278 319.061 216.52C318.601 215.753 318.021 215.084 317.322 214.513C316.624 213.942 315.831 213.499 314.945 213.183C314.058 212.868 313.099 212.71 312.068 212.71C310.415 212.71 308.906 213.141 307.543 214.001C306.188 214.862 305.101 216.128 304.283 217.798C303.473 219.46 303.068 221.497 303.068 223.909C303.068 226.338 303.473 228.384 304.283 230.045C305.101 231.707 306.188 232.969 307.543 233.83C308.906 234.682 310.415 235.108 312.068 235.108C313.099 235.108 314.058 234.95 314.945 234.635C315.831 234.32 316.624 233.881 317.322 233.318C318.021 232.747 318.601 232.078 319.061 231.311C319.53 230.544 319.854 229.713 320.033 228.818H322.436C322.223 230.02 321.822 231.141 321.234 232.18C320.655 233.212 319.913 234.115 319.01 234.891C318.115 235.666 317.084 236.271 315.916 236.706C314.749 237.141 313.466 237.358 312.068 237.358C309.869 237.358 307.918 236.808 306.213 235.709C304.509 234.601 303.17 233.041 302.199 231.03C301.236 229.018 300.754 226.645 300.754 223.909C300.754 221.173 301.236 218.8 302.199 216.788C303.17 214.777 304.509 213.222 306.213 212.122C307.918 211.014 309.869 210.46 312.068 210.46C313.466 210.46 314.749 210.678 315.916 211.112C317.084 211.538 318.115 212.143 319.01 212.928C319.913 213.703 320.655 214.607 321.234 215.638C321.822 216.669 322.223 217.79 322.436 219ZM335.211 237.409C333.515 237.409 332.015 236.979 330.711 236.118C329.415 235.257 328.401 234.068 327.668 232.551C326.935 231.026 326.569 229.266 326.569 227.271C326.569 225.26 326.935 223.491 327.668 221.966C328.401 220.432 329.415 219.239 330.711 218.386C332.015 217.526 333.515 217.095 335.211 217.095C336.907 217.095 338.402 217.526 339.698 218.386C340.993 219.247 342.007 220.44 342.74 221.966C343.482 223.491 343.853 225.26 343.853 227.271C343.853 229.266 343.486 231.026 342.753 232.551C342.02 234.068 341.002 235.257 339.698 236.118C338.402 236.979 336.907 237.409 335.211 237.409ZM335.211 235.325C336.574 235.325 337.729 234.959 338.675 234.226C339.621 233.493 340.337 232.517 340.823 231.298C341.317 230.08 341.564 228.737 341.564 227.271C341.564 225.805 341.317 224.459 340.823 223.232C340.337 222.004 339.621 221.02 338.675 220.278C337.729 219.537 336.574 219.166 335.211 219.166C333.855 219.166 332.701 219.537 331.746 220.278C330.8 221.02 330.08 222.004 329.586 223.232C329.1 224.459 328.857 225.805 328.857 227.271C328.857 228.737 329.1 230.08 329.586 231.298C330.08 232.517 330.8 233.493 331.746 234.226C332.692 234.959 333.847 235.325 335.211 235.325ZM351.124 224.727V237H348.848V217.364H351.06V220.445H351.264C351.724 219.439 352.44 218.634 353.412 218.028C354.392 217.415 355.602 217.108 357.043 217.108C358.364 217.108 359.523 217.385 360.52 217.939C361.526 218.484 362.305 219.29 362.859 220.355C363.422 221.42 363.703 222.729 363.703 224.28V237H361.428V224.42C361.428 222.81 360.976 221.536 360.072 220.598C359.178 219.661 357.976 219.192 356.467 219.192C355.436 219.192 354.52 219.413 353.719 219.857C352.918 220.3 352.283 220.939 351.814 221.774C351.354 222.601 351.124 223.585 351.124 224.727ZM377.43 217.364V219.345H368.059V217.364H377.43ZM370.987 212.659H373.275V231.874C373.275 232.692 373.416 233.335 373.697 233.804C373.978 234.264 374.345 234.592 374.797 234.788C375.248 234.976 375.73 235.07 376.241 235.07C376.539 235.07 376.795 235.053 377.008 235.018C377.221 234.976 377.409 234.933 377.571 234.891L378.056 236.949C377.835 237.034 377.562 237.111 377.238 237.179C376.914 237.256 376.514 237.294 376.037 237.294C375.201 237.294 374.396 237.111 373.62 236.744C372.853 236.378 372.223 235.832 371.728 235.108C371.234 234.384 370.987 233.484 370.987 232.411V212.659ZM382.624 237V217.364H384.912V237H382.624ZM383.787 213.989C383.318 213.989 382.918 213.831 382.585 213.516C382.253 213.192 382.087 212.804 382.087 212.352C382.087 211.901 382.253 211.517 382.585 211.202C382.918 210.878 383.318 210.716 383.787 210.716C384.256 210.716 384.656 210.878 384.989 211.202C385.321 211.517 385.487 211.901 385.487 212.352C385.487 212.804 385.321 213.192 384.989 213.516C384.656 213.831 384.256 213.989 383.787 213.989ZM393.206 224.727V237H390.93V217.364H393.142V220.445H393.346C393.806 219.439 394.522 218.634 395.494 218.028C396.474 217.415 397.684 217.108 399.125 217.108C400.446 217.108 401.605 217.385 402.602 217.939C403.608 218.484 404.387 219.29 404.941 220.355C405.504 221.42 405.785 222.729 405.785 224.28V237H403.51V224.42C403.51 222.81 403.058 221.536 402.154 220.598C401.26 219.661 400.058 219.192 398.549 219.192C397.518 219.192 396.602 219.413 395.801 219.857C395 220.3 394.365 220.939 393.896 221.774C393.436 222.601 393.206 223.585 393.206 224.727ZM424.255 229.496V217.364H426.531V237H424.255V233.74H424.076C423.616 234.746 422.887 235.585 421.89 236.259C420.893 236.923 419.674 237.256 418.234 237.256C416.981 237.256 415.869 236.983 414.897 236.438C413.925 235.884 413.163 235.074 412.609 234.009C412.055 232.943 411.778 231.635 411.778 230.084V217.364H414.053V229.943C414.053 231.477 414.505 232.713 415.408 233.651C416.312 234.58 417.471 235.044 418.886 235.044C419.772 235.044 420.624 234.831 421.442 234.405C422.261 233.979 422.934 233.357 423.462 232.538C423.991 231.712 424.255 230.697 424.255 229.496ZM440.494 237.409C438.662 237.409 437.076 236.983 435.738 236.131C434.4 235.27 433.365 234.081 432.632 232.564C431.907 231.038 431.545 229.283 431.545 227.297C431.545 225.32 431.907 223.564 432.632 222.03C433.365 220.487 434.375 219.281 435.662 218.412C436.957 217.534 438.453 217.095 440.149 217.095C441.214 217.095 442.241 217.291 443.23 217.683C444.218 218.067 445.105 218.659 445.889 219.46C446.681 220.253 447.308 221.254 447.768 222.464C448.228 223.666 448.458 225.089 448.458 226.734V227.859H433.118V225.852H446.132C446.132 224.591 445.876 223.457 445.365 222.452C444.862 221.437 444.159 220.636 443.255 220.048C442.36 219.46 441.325 219.166 440.149 219.166C438.904 219.166 437.809 219.499 436.863 220.163C435.917 220.828 435.176 221.706 434.639 222.797C434.11 223.888 433.842 225.081 433.833 226.376V227.578C433.833 229.138 434.102 230.501 434.639 231.669C435.184 232.828 435.956 233.727 436.953 234.366C437.95 235.006 439.13 235.325 440.494 235.325C441.423 235.325 442.237 235.18 442.936 234.891C443.643 234.601 444.235 234.213 444.713 233.727C445.199 233.233 445.565 232.692 445.812 232.104L447.973 232.807C447.674 233.634 447.184 234.396 446.502 235.095C445.829 235.794 444.985 236.357 443.971 236.783C442.966 237.2 441.806 237.409 440.494 237.409ZM460.543 237.409C458.932 237.409 457.521 236.983 456.311 236.131C455.101 235.278 454.155 234.089 453.473 232.564C452.8 231.038 452.463 229.261 452.463 227.233C452.463 225.213 452.8 223.445 453.473 221.928C454.155 220.402 455.105 219.217 456.324 218.374C457.543 217.521 458.962 217.095 460.581 217.095C461.774 217.095 462.767 217.308 463.56 217.734C464.352 218.152 464.987 218.672 465.464 219.294C465.942 219.916 466.313 220.521 466.577 221.109H466.781V210.818H469.07V237H466.845V233.357H466.577C466.313 233.953 465.938 234.567 465.452 235.197C464.966 235.82 464.322 236.344 463.521 236.77C462.729 237.196 461.736 237.409 460.543 237.409ZM460.811 235.325C462.081 235.325 463.163 234.98 464.058 234.29C464.953 233.591 465.635 232.632 466.104 231.413C466.581 230.186 466.82 228.78 466.82 227.195C466.82 225.626 466.585 224.241 466.116 223.04C465.648 221.83 464.966 220.884 464.071 220.202C463.176 219.511 462.089 219.166 460.811 219.166C459.499 219.166 458.391 219.524 457.487 220.24C456.592 220.947 455.911 221.906 455.442 223.116C454.982 224.327 454.751 225.686 454.751 227.195C454.751 228.72 454.986 230.097 455.455 231.324C455.923 232.551 456.605 233.527 457.5 234.251C458.403 234.967 459.507 235.325 460.811 235.325Z" fill="white"/>
</g>
<defs>
<clipPath id="clip0_1_143">
<rect width="504.118" height="292.152" fill="white"/>
</clipPath>
</defs>
</svg>
