<svg width="754" height="651" viewBox="0 0 754 651" fill="none" xmlns="http://www.w3.org/2000/svg">
<mask id="path-1-inside-1_5_180" fill="white">
<path d="M377 0C585.194 0 754 165.637 754 370C754 474.636 709.746 569.119 638.61 636.415C610.477 663.03 566.792 649.602 539.794 621.838C498.033 578.891 439.585 552.27 374.95 552.424C311.295 552.576 253.764 578.669 212.34 620.673C185.147 648.247 141.367 661.362 113.426 634.545C43.4405 567.374 0 473.67 0 370C0 165.637 168.806 0 377 0ZM466.249 269.877C462.972 269.877 459.773 270.879 457.085 272.748L338.821 346.967C328.797 354.278 322.069 365.238 320.096 377.468C318.122 389.697 321.063 402.21 328.281 412.29C335.499 422.37 346.411 429.203 358.648 431.308C370.886 433.412 383.461 430.616 393.646 423.529C397.864 420.493 401.566 416.8 404.61 412.592L479.015 294.623C481.434 291.242 482.412 287.043 481.737 282.944C481.062 278.846 478.788 275.179 475.412 272.748C472.724 270.879 469.526 269.877 466.249 269.877ZM576.742 349.599C562.935 349.599 551.742 360.792 551.742 374.599C551.742 388.406 562.935 399.599 576.742 399.599H627.009C640.816 399.599 652.009 388.406 652.009 374.599C652.009 360.792 640.816 349.599 627.009 349.599H576.742ZM126.158 349.348C112.351 349.348 101.158 360.541 101.158 374.348C101.158 388.155 112.351 399.348 126.158 399.348H176.425C190.232 399.348 201.425 388.155 201.425 374.348C201.425 360.541 190.232 349.348 176.425 349.348H126.158ZM571.574 180.678C561.785 170.915 545.914 170.915 536.125 180.678L500.675 216.033C490.886 225.796 490.886 241.626 500.675 251.389C510.464 261.152 526.336 261.152 536.125 251.389L571.574 216.033C581.363 206.27 581.363 190.441 571.574 180.678ZM217.22 180.501C207.431 170.738 191.56 170.738 181.771 180.501C171.982 190.264 171.982 206.092 181.771 215.855L217.22 251.211C227.009 260.974 242.881 260.974 252.67 251.211C262.459 241.448 262.459 225.618 252.67 215.855L217.22 180.501ZM376.208 100.28C362.364 100.28 351.142 111.503 351.142 125.347V175.213C351.142 189.057 362.364 200.28 376.208 200.28C390.052 200.28 401.274 189.058 401.274 175.214V125.347C401.274 111.503 390.052 100.28 376.208 100.28Z"/>
</mask>
<path d="M377 0C585.194 0 754 165.637 754 370C754 474.636 709.746 569.119 638.61 636.415C610.477 663.03 566.792 649.602 539.794 621.838C498.033 578.891 439.585 552.27 374.95 552.424C311.295 552.576 253.764 578.669 212.34 620.673C185.147 648.247 141.367 661.362 113.426 634.545C43.4405 567.374 0 473.67 0 370C0 165.637 168.806 0 377 0ZM466.249 269.877C462.972 269.877 459.773 270.879 457.085 272.748L338.821 346.967C328.797 354.278 322.069 365.238 320.096 377.468C318.122 389.697 321.063 402.21 328.281 412.29C335.499 422.37 346.411 429.203 358.648 431.308C370.886 433.412 383.461 430.616 393.646 423.529C397.864 420.493 401.566 416.8 404.61 412.592L479.015 294.623C481.434 291.242 482.412 287.043 481.737 282.944C481.062 278.846 478.788 275.179 475.412 272.748C472.724 270.879 469.526 269.877 466.249 269.877ZM576.742 349.599C562.935 349.599 551.742 360.792 551.742 374.599C551.742 388.406 562.935 399.599 576.742 399.599H627.009C640.816 399.599 652.009 388.406 652.009 374.599C652.009 360.792 640.816 349.599 627.009 349.599H576.742ZM126.158 349.348C112.351 349.348 101.158 360.541 101.158 374.348C101.158 388.155 112.351 399.348 126.158 399.348H176.425C190.232 399.348 201.425 388.155 201.425 374.348C201.425 360.541 190.232 349.348 176.425 349.348H126.158ZM571.574 180.678C561.785 170.915 545.914 170.915 536.125 180.678L500.675 216.033C490.886 225.796 490.886 241.626 500.675 251.389C510.464 261.152 526.336 261.152 536.125 251.389L571.574 216.033C581.363 206.27 581.363 190.441 571.574 180.678ZM217.22 180.501C207.431 170.738 191.56 170.738 181.771 180.501C171.982 190.264 171.982 206.092 181.771 215.855L217.22 251.211C227.009 260.974 242.881 260.974 252.67 251.211C262.459 241.448 262.459 225.618 252.67 215.855L217.22 180.501ZM376.208 100.28C362.364 100.28 351.142 111.503 351.142 125.347V175.213C351.142 189.057 362.364 200.28 376.208 200.28C390.052 200.28 401.274 189.058 401.274 175.214V125.347C401.274 111.503 390.052 100.28 376.208 100.28Z" fill="#DAEEFF"/>
<path d="M374.95 552.424L374.914 537.424H374.914L374.95 552.424ZM466.249 269.877L466.249 254.877H466.249V269.877ZM457.085 272.748L465.058 285.453L465.358 285.265L465.648 285.063L457.085 272.748ZM338.821 346.967L330.848 334.262L330.405 334.54L329.982 334.848L338.821 346.967ZM320.096 377.468L305.287 375.078V375.078L320.096 377.468ZM328.281 412.29L316.086 421.023V421.023L328.281 412.29ZM358.648 431.308L356.106 446.091L356.106 446.091L358.648 431.308ZM393.646 423.529L402.213 435.842L402.311 435.773L402.408 435.704L393.646 423.529ZM404.61 412.592L416.764 421.383L417.043 420.997L417.298 420.594L404.61 412.592ZM479.015 294.623L466.815 285.896L466.561 286.251L466.327 286.621L479.015 294.623ZM481.737 282.944L496.538 280.507L496.538 280.506L481.737 282.944ZM475.412 272.748L484.178 260.576L484.077 260.503L483.975 260.432L475.412 272.748ZM576.742 349.599V334.599V334.599V349.599ZM551.742 374.599H536.742V374.599L551.742 374.599ZM576.742 399.599V414.599V414.599V399.599ZM652.009 374.599L667.009 374.599V374.599H652.009ZM101.158 374.348H86.1582V374.348L101.158 374.348ZM176.425 399.348V414.348H176.425L176.425 399.348ZM201.425 374.348L216.425 374.348V374.348H201.425ZM176.425 349.348L176.425 334.348H176.425V349.348ZM571.574 180.678L582.167 170.057L582.167 170.057L571.574 180.678ZM536.125 180.678L525.533 170.057L525.533 170.057L536.125 180.678ZM500.675 216.033L490.082 205.412L490.082 205.413L500.675 216.033ZM500.675 251.389L490.082 262.009L490.082 262.009L500.675 251.389ZM536.125 251.389L546.717 262.009L546.718 262.009L536.125 251.389ZM571.574 216.033L560.982 205.412L560.982 205.413L571.574 216.033ZM217.22 180.501L206.627 191.122L206.627 191.122L217.22 180.501ZM181.771 180.501L171.178 169.88L171.178 169.88L181.771 180.501ZM181.771 215.855L192.363 205.235V205.235L181.771 215.855ZM217.22 251.211L206.627 261.832L206.627 261.832L217.22 251.211ZM252.67 251.211L263.262 261.832L263.263 261.831L252.67 251.211ZM252.67 215.855L263.262 205.235L263.262 205.235L252.67 215.855ZM376.208 100.28L376.208 85.2803H376.208V100.28ZM351.142 125.347H336.142V125.347H351.142ZM376.208 200.28V215.28H376.208L376.208 200.28ZM401.274 175.214L416.274 175.214V175.214H401.274ZM401.274 125.347H416.274V125.347L401.274 125.347ZM212.34 620.673L201.66 610.141L212.34 620.673ZM638.61 636.415L628.302 625.519L638.61 636.415ZM539.794 621.838L529.04 632.295L539.794 621.838ZM377 0V15C577.177 15 739 174.186 739 370H754H769C769 157.088 593.211 -15 377 -15V0ZM754 370H739C739 470.3 696.601 560.905 628.302 625.519L638.61 636.415L648.919 647.312C722.891 577.332 769 478.972 769 370H754ZM539.794 621.838L550.548 611.38C506.071 565.641 443.778 537.26 374.914 537.424L374.95 552.424L374.986 567.424C435.392 567.28 489.994 592.141 529.04 632.295L539.794 621.838ZM374.95 552.424L374.914 537.424C307.096 537.586 245.779 565.404 201.66 610.141L212.34 620.673L223.02 631.206C261.75 591.934 315.494 567.566 374.986 567.424L374.95 552.424ZM113.426 634.545L123.813 623.723C56.6196 559.232 15 469.375 15 370H0H-15C-15 477.965 30.2615 575.516 103.039 645.367L113.426 634.545ZM0 370H15C15 174.186 176.824 15 377 15V0V-15C160.789 -15 -15 157.088 -15 370H0ZM466.249 269.877V254.877C459.915 254.877 453.727 256.813 448.522 260.433L457.085 272.748L465.648 285.063C465.819 284.944 466.029 284.877 466.249 284.877V269.877ZM457.085 272.748L449.112 260.043L330.848 334.262L338.821 346.967L346.795 359.672L465.058 285.453L457.085 272.748ZM338.821 346.967L329.982 334.848C316.769 344.485 307.892 358.94 305.287 375.078L320.096 377.468L334.904 379.857C336.247 371.537 340.826 364.071 347.661 359.086L338.821 346.967ZM320.096 377.468L305.287 375.078C302.683 391.218 306.566 407.728 316.086 421.023L328.281 412.29L340.477 403.557C335.561 396.692 333.562 388.177 334.904 379.857L320.096 377.468ZM328.281 412.29L316.086 421.023C325.604 434.316 339.988 443.319 356.106 446.091L358.648 431.308L361.19 416.525C352.834 415.088 345.394 410.423 340.477 403.557L328.281 412.29ZM358.648 431.308L356.106 446.091C372.225 448.862 388.792 445.181 402.213 435.842L393.646 423.529L385.078 411.217C378.13 416.052 369.546 417.961 361.19 416.525L358.648 431.308ZM393.646 423.529L402.408 435.704C407.93 431.729 412.777 426.894 416.764 421.383L404.61 412.592L392.457 403.8C390.355 406.705 387.798 409.256 384.883 411.355L393.646 423.529ZM404.61 412.592L417.298 420.594L491.702 302.625L479.015 294.623L466.327 286.621L391.923 404.59L404.61 412.592ZM479.015 294.623L491.214 303.351C495.942 296.742 497.859 288.528 496.538 280.507L481.737 282.944L466.937 285.382C466.966 285.558 466.925 285.742 466.815 285.896L479.015 294.623ZM481.737 282.944L496.538 280.506C495.217 272.487 490.769 265.323 484.178 260.576L475.412 272.748L466.646 284.92C466.807 285.036 466.907 285.204 466.937 285.382L481.737 282.944ZM475.412 272.748L483.975 260.432C478.771 256.814 472.584 254.877 466.249 254.877L466.249 269.877L466.249 284.877C466.467 284.877 466.677 284.944 466.849 285.064L475.412 272.748ZM576.742 349.599V334.599C554.651 334.599 536.742 352.507 536.742 374.599H551.742H566.742C566.742 369.076 571.219 364.599 576.742 364.599V349.599ZM551.742 374.599L536.742 374.599C536.742 396.69 554.651 414.599 576.742 414.599V399.599V384.599C571.22 384.599 566.742 380.121 566.742 374.598L551.742 374.599ZM576.742 399.599V414.599H627.009V399.599V384.599H576.742V399.599ZM627.009 399.599V414.599C649.1 414.599 667.009 396.69 667.009 374.599L652.009 374.599L637.009 374.598C637.009 380.121 632.531 384.599 627.009 384.599V399.599ZM652.009 374.599H667.009C667.009 352.507 649.1 334.599 627.009 334.599V349.599V364.599C632.532 364.599 637.009 369.076 637.009 374.599H652.009ZM627.009 349.599V334.599H576.742V349.599V364.599H627.009V349.599ZM126.158 349.348V334.348C104.067 334.348 86.1582 352.256 86.1582 374.348H101.158H116.158C116.158 368.825 120.635 364.348 126.158 364.348V349.348ZM101.158 374.348L86.1582 374.348C86.1584 396.439 104.067 414.348 126.158 414.348V399.348V384.348C120.636 384.348 116.158 379.871 116.158 374.348L101.158 374.348ZM126.158 399.348V414.348H176.425V399.348V384.348H126.158V399.348ZM176.425 399.348L176.425 414.348C198.516 414.348 216.425 396.439 216.425 374.348L201.425 374.348L186.425 374.348C186.425 379.87 181.947 384.348 176.425 384.348L176.425 399.348ZM201.425 374.348H216.425C216.425 352.256 198.516 334.348 176.425 334.348L176.425 349.348L176.425 364.348C181.948 364.348 186.425 368.825 186.425 374.348H201.425ZM176.425 349.348V334.348H126.158V349.348V364.348H176.425V349.348ZM571.574 180.678L582.167 170.057C566.523 154.455 541.176 154.455 525.533 170.057L536.125 180.678L546.717 191.299C550.652 187.375 557.047 187.375 560.982 191.299L571.574 180.678ZM536.125 180.678L525.533 170.057L490.082 205.412L500.675 216.033L511.267 226.654L546.717 191.299L536.125 180.678ZM500.675 216.033L490.082 205.413C474.417 221.037 474.417 246.385 490.082 262.009L500.675 251.389L511.267 240.768C507.355 236.866 507.355 230.556 511.267 226.654L500.675 216.033ZM500.675 251.389L490.082 262.009C505.726 277.612 531.074 277.612 546.717 262.009L536.125 251.389L525.533 240.768C521.598 244.692 515.202 244.692 511.267 240.768L500.675 251.389ZM536.125 251.389L546.718 262.009L582.167 226.654L571.574 216.033L560.982 205.413L525.532 240.768L536.125 251.389ZM571.574 216.033L582.167 226.654C597.833 211.03 597.833 185.681 582.167 170.057L571.574 180.678L560.982 191.298C564.894 195.2 564.894 201.51 560.982 205.412L571.574 216.033ZM217.22 180.501L227.812 169.88C212.168 154.278 186.822 154.278 171.178 169.88L181.771 180.501L192.363 191.122C196.298 187.198 202.693 187.198 206.627 191.122L217.22 180.501ZM181.771 180.501L171.178 169.88C155.512 185.504 155.512 210.852 171.178 226.476L181.771 215.855L192.363 205.235C188.451 201.333 188.451 195.024 192.363 191.122L181.771 180.501ZM181.771 215.855L171.178 226.476L206.627 261.832L217.22 251.211L227.812 240.59L192.363 205.235L181.771 215.855ZM217.22 251.211L206.627 261.832C222.271 277.434 247.619 277.434 263.262 261.832L252.67 251.211L242.077 240.59C238.143 244.514 231.747 244.514 227.812 240.59L217.22 251.211ZM252.67 251.211L263.263 261.831C278.928 246.207 278.928 220.859 263.262 205.235L252.67 215.855L242.077 226.476C245.99 230.378 245.99 236.688 242.077 240.59L252.67 251.211ZM252.67 215.855L263.262 205.235L227.812 169.88L217.22 180.501L206.627 191.122L242.078 226.476L252.67 215.855ZM376.208 100.28V85.2803C354.08 85.2803 336.142 103.218 336.142 125.347H351.142H366.142C366.142 119.787 370.648 115.28 376.208 115.28V100.28ZM351.142 125.347H336.142V175.213H351.142H366.142V125.347H351.142ZM351.142 175.213H336.142C336.142 197.34 354.079 215.28 376.208 215.28V200.28V185.28C370.649 185.28 366.142 180.773 366.142 175.213H351.142ZM376.208 200.28L376.208 215.28C398.336 215.28 416.274 197.342 416.274 175.214L401.274 175.214L386.274 175.214C386.274 180.773 381.767 185.28 376.208 185.28L376.208 200.28ZM401.274 175.214H416.274V125.347H401.274H386.274V175.214H401.274ZM401.274 125.347L416.274 125.347C416.274 103.218 398.336 85.2804 376.208 85.2803L376.208 100.28L376.208 115.28C381.768 115.28 386.274 119.787 386.274 125.347L401.274 125.347ZM212.34 620.673L201.66 610.141C189.883 622.083 174.794 630.54 160.376 633.267C146.281 635.933 133.594 633.11 123.813 623.723L113.426 634.545L103.039 645.367C121.199 662.797 144.372 666.826 165.951 662.745C187.206 658.725 207.604 646.838 223.02 631.206L212.34 620.673ZM638.61 636.415L628.302 625.519C618.454 634.835 605.745 637.566 591.669 634.8C577.27 631.97 562.241 623.405 550.548 611.38L539.794 621.838L529.04 632.295C544.345 648.035 564.658 660.066 585.884 664.237C607.433 668.472 630.634 664.61 648.919 647.312L638.61 636.415Z" fill="#3366CC" mask="url(#path-1-inside-1_5_180)"/>
</svg>
