<svg width="752" height="650" viewBox="0 0 752 650" fill="none" xmlns="http://www.w3.org/2000/svg">
<path d="M376 0C583.659 0 752 165.207 752 369C752 473.344 707.868 567.571 636.924 634.688C608.869 661.229 565.31 647.938 538.302 620.332C496.574 577.682 438.331 551.27 373.95 551.424C310.549 551.575 253.223 577.461 211.836 619.172C184.633 646.587 140.981 659.567 113.118 632.823C43.3202 565.831 0 472.381 0 369C0 165.207 168.341 0 376 0ZM473.249 261.877C469.972 261.877 466.773 262.879 464.085 264.748L345.821 338.967C335.797 346.278 329.069 357.238 327.096 369.468C325.122 381.697 328.063 394.21 335.281 404.29C342.499 414.37 353.411 421.203 365.648 423.308C377.886 425.412 390.461 422.616 400.646 415.529C404.864 412.493 408.566 408.8 411.61 404.592L486.015 286.623C488.434 283.242 489.412 279.043 488.737 274.944C488.062 270.846 485.788 267.179 482.412 264.748C479.724 262.879 476.526 261.877 473.249 261.877ZM575.742 348.599C561.935 348.599 550.742 359.792 550.742 373.599C550.742 387.406 561.935 398.599 575.742 398.599H626.009C639.816 398.599 651.009 387.406 651.009 373.599C651.009 359.792 639.816 348.599 626.009 348.599H575.742ZM125.158 348.348C111.351 348.348 100.158 359.541 100.158 373.348C100.158 387.155 111.351 398.348 125.158 398.348H175.425C189.232 398.348 200.425 387.155 200.425 373.348C200.425 359.541 189.232 348.348 175.425 348.348H125.158ZM570.574 179.678C560.785 169.915 544.914 169.915 535.125 179.678L499.675 215.033C489.886 224.796 489.886 240.626 499.675 250.389C509.464 260.152 525.336 260.152 535.125 250.389L570.574 215.033C580.363 205.27 580.363 189.441 570.574 179.678ZM216.22 179.501C206.431 169.738 190.56 169.738 180.771 179.501C170.982 189.264 170.982 205.092 180.771 214.855L216.22 250.211C226.009 259.974 241.881 259.974 251.67 250.211C261.459 240.448 261.459 224.618 251.67 214.855L216.22 179.501ZM375.208 99.2803C361.364 99.2803 350.142 110.503 350.142 124.347V174.213C350.142 188.057 361.364 199.28 375.208 199.28C389.052 199.28 400.274 188.058 400.274 174.214V124.347C400.274 110.503 389.052 99.2804 375.208 99.2803Z" fill="currentColor"/>
</svg>
